<svg width="20" height="22" viewBox="0 0 20 22" fill="none" xmlns="http://www.w3.org/2000/svg">
<path d="M0.598877 5.20081H2.59888M2.59888 5.20081H18.5989M2.59888 5.20081V19.2008C2.59888 19.7312 2.80959 20.2399 3.18466 20.615C3.55974 20.9901 4.06844 21.2008 4.59888 21.2008H14.5989C15.1293 21.2008 15.638 20.9901 16.0131 20.615C16.3882 20.2399 16.5989 19.7312 16.5989 19.2008V5.20081H2.59888ZM5.59888 5.20081V3.20081C5.59888 2.67037 5.80959 2.16166 6.18466 1.78659C6.55974 1.41152 7.06844 1.20081 7.59888 1.20081H11.5989C12.1293 1.20081 12.638 1.41152 13.0131 1.78659C13.3882 2.16166 13.5989 2.67037 13.5989 3.20081V5.20081M7.59888 10.2008V16.2008M11.5989 10.2008V16.2008" stroke="white" stroke-linecap="round" stroke-linejoin="round" stroke-width="1.6"/>
</svg>
